<?xml version="1.0" encoding="UTF-8" standalone="no"?>
<!-- Created with Inkscape (http://www.inkscape.org/) -->

<svg
   xmlns:dc="http://purl.org/dc/elements/1.1/"
   xmlns:cc="http://creativecommons.org/ns#"
   xmlns:rdf="http://www.w3.org/1999/02/22-rdf-syntax-ns#"
   xmlns:svg="http://www.w3.org/2000/svg"
   xmlns="http://www.w3.org/2000/svg"
   xmlns:sodipodi="http://sodipodi.sourceforge.net/DTD/sodipodi-0.dtd"
   xmlns:inkscape="http://www.inkscape.org/namespaces/inkscape"
   version="1.1"
   id="svg3713"
   xml:space="preserve"
   width="682.66669"
   height="682.66669"
   viewBox="0 0 682.66669 682.66669"
   sodipodi:docname="html_css_js.svg"
   inkscape:export-filename="html_css_js.png"
   inkscape:export-xdpi="96"
   inkscape:export-ydpi="96"
   inkscape:version="0.92.4 (5da689c313, 2019-01-14)"><metadata
     id="metadata3719"><rdf:RDF><cc:Work
         rdf:about=""><dc:format>image/svg+xml</dc:format><dc:type
           rdf:resource="http://purl.org/dc/dcmitype/StillImage" /><dc:title></dc:title></cc:Work></rdf:RDF></metadata><defs
     id="defs3717"><clipPath
       clipPathUnits="userSpaceOnUse"
       id="clipPath3749"><path
         d="M 0,512 H 512 V 0 H 0 Z"
         id="path3747"
         inkscape:connector-curvature="0" /></clipPath><clipPath
       clipPathUnits="userSpaceOnUse"
       id="clipPath3761"><path
         d="M 0,512 H 512 V 0 H 0 Z"
         id="path3759"
         inkscape:connector-curvature="0" /></clipPath></defs><sodipodi:namedview
     pagecolor="#ffffff"
     bordercolor="#666666"
     borderopacity="1"
     objecttolerance="10"
     gridtolerance="10"
     guidetolerance="10"
     inkscape:pageopacity="0"
     inkscape:pageshadow="2"
     inkscape:window-width="1920"
     inkscape:window-height="1001"
     id="namedview3715"
     showgrid="false"
     inkscape:zoom="1.1835937"
     inkscape:cx="200.23763"
     inkscape:cy="341.33334"
     inkscape:window-x="-9"
     inkscape:window-y="-9"
     inkscape:window-maximized="1"
     inkscape:current-layer="g3721" /><g
     id="g3721"
     inkscape:groupmode="layer"
     inkscape:label="HTML_CSS_JS"
     transform="matrix(1.3333333,0,0,-1.3333333,0,682.66667)"><g
       id="g3723"
       transform="translate(510.5547,339.3096)"><path
         d="m 0,0 h -100.688 -100.689 l 18.869,-204.713 81.82,-23.196 81.789,23.196 z"
         style="fill:#e5a229;fill-opacity:1;fill-rule:nonzero;stroke:none"
         id="path3725"
         inkscape:connector-curvature="0" /></g><g
       id="g3727"
       transform="translate(409.8662,322.6338)"><path
         d="M 0,0 V -193.896 L 66.255,-175.115 82.39,0 Z"
         style="fill:#f1be21;fill-opacity:1;fill-rule:nonzero;stroke:none"
         id="path3729"
         inkscape:connector-curvature="0" /></g><g
       id="g3731"
       transform="translate(462.5781,297.5142)"><path
         d="m 0,0 h -101.907 l -7.083,-76.651 0.15,0.482 h 86.565 l -2.825,-32.422 -27.612,-7.962 -28.035,8.081 -1.682,19.622 h -25.45 l 3.636,-39.212 51.531,-14.633 51.53,14.633 7.093,76.951 h -91.855 l 1.171,25.66 h 63.755 l 0.938,-14.686 H 5.599 Z"
         style="fill:#ffffff;fill-opacity:1;fill-rule:nonzero;stroke:none"
         id="path3733"
         inkscape:connector-curvature="0" /></g><g
       id="g3735"
       transform="translate(380.1494,208.6641)"><path
         d="m 0,0 h -25.45 l 3.636,-39.212 51.531,-14.601 v 26.11 l -28.035,8.081 z m 29.717,88.85 h -49.196 l -7.083,-76.651 0.151,0.482 H 29.717 V 37.739 H 0.028 l 1.17,25.66 h 28.519 z"
         style="fill:#ebeaea;fill-opacity:1;fill-rule:nonzero;stroke:none"
         id="path3737"
         inkscape:connector-curvature="0" /></g><g
       id="g3739"
       transform="translate(390.2705,369.5063)"><path
         d="M 0,0 H -17.908 V -12.86 H 0 9.587 12.832 V 25.36 H 0 Z"
         style="fill:#000000;fill-opacity:1;fill-rule:nonzero;stroke:none"
         id="path3741"
         inkscape:connector-curvature="0" /></g><g
       id="g3743"><g
         id="g3745"
         clip-path="url(#clipPath3749)"><g
           id="g3751"
           transform="translate(447.3711,394.6724)"><path
             d="m 0,0 h -31.235 v -13.384 c 4.174,-4.179 6.357,-6.179 12.402,-12.224 -3.535,0 -12.402,-0.012 -12.402,-0.012 V -37.83 H 0 v 12.212 l -12.476,12.234 H 0 Z"
             style="fill:#000000;fill-opacity:1;fill-rule:nonzero;stroke:none"
             id="path3753"
             inkscape:connector-curvature="0" /></g></g></g><g
       id="g3767"
       transform="translate(18.9331,141.0068)"><path
         d="M 0,0 -17.64,197.848 H 176.188 L 158.53,0.031 79.156,-21.975 Z"
         style="fill:#e44d26;fill-opacity:1;fill-rule:nonzero;stroke:none"
         id="path3769"
         inkscape:connector-curvature="0" /></g><g
       id="g3771"
       transform="translate(98.0117,135.999)"><path
         d="M 0,0 64.138,17.781 79.229,186.825 H 0 Z"
         style="fill:#f16529;fill-opacity:1;fill-rule:nonzero;stroke:none"
         id="path3773"
         inkscape:connector-curvature="0" /></g><g
       id="g3775"
       transform="translate(98.0117,249.6182)"><path
         d="m 0,0 h -32.454 l -2.241,25.114 H 0 V 49.16 h -0.084 -60.619 l 0.579,-6.494 5.95,-66.712 H 0 Z"
         style="fill:#ebebeb;fill-opacity:1;fill-rule:nonzero;stroke:none"
         id="path3777"
         inkscape:connector-curvature="0" /></g><g
       id="g3779"
       transform="translate(98.0117,186.6602)"><path
         d="M 0,0 -0.106,-0.028 -27.131,7.27 -28.858,26.622 H -41.99 -53.217 l 3.4,-38.101 49.705,-13.797 0.112,0.03 z"
         style="fill:#ebebeb;fill-opacity:1;fill-rule:nonzero;stroke:none"
         id="path3781"
         inkscape:connector-curvature="0" /></g><g
       id="g3783"
       transform="translate(19.4609,392.8247)"><path
         d="M 0,0 H 12.291 V -12.29 H 23.512 V 0 h 12.29 v -36.871 h -12.29 v 12.29 H 12.291 v -12.29 H 0 Z"
         style="fill:#000000;fill-opacity:1;fill-rule:nonzero;stroke:none"
         id="path3785"
         inkscape:connector-curvature="0" /></g><g
       id="g3787"
       transform="translate(71.2935,380.5347)"><path
         d="M 0,0 H -10.687 V 12.29 H 23.512 V 0 H 12.291 V -24.581 H 0 Z"
         style="fill:#000000;fill-opacity:1;fill-rule:nonzero;stroke:none"
         id="path3789"
         inkscape:connector-curvature="0" /></g><g
       id="g3791"
       transform="translate(100.1489,392.8247)"><path
         d="M 0,0 H 12.904 L 20.841,-12.955 28.771,0 H 41.68 V -36.871 H 29.39 v 18.905 L 20.948,-31.527 H 20.737 L 12.29,-17.966 V -36.871 H 0 Z"
         style="fill:#000000;fill-opacity:1;fill-rule:nonzero;stroke:none"
         id="path3793"
         inkscape:connector-curvature="0" /></g><g
       id="g3795"
       transform="translate(147.7065,392.8247)"><path
         d="m 0,0 h 12.29 v -24.581 h 17.099 v -12.29 l -29.389,0 z"
         style="fill:#000000;fill-opacity:1;fill-rule:nonzero;stroke:none"
         id="path3797"
         inkscape:connector-curvature="0" /></g><g
       id="g3799"
       transform="translate(98.0117,249.6182)"><path
         d="M 0,0 V -24.046 H 29.61 L 26.819,-55.232 0,-62.471 v -25.017 l 49.296,13.663 0.361,4.062 5.651,63.306 L 55.895,0 h -6.48 z"
         style="fill:#ffffff;fill-opacity:1;fill-rule:nonzero;stroke:none"
         id="path3801"
         inkscape:connector-curvature="0" /></g><g
       id="g3803"
       transform="translate(98.0117,298.2441)"><path
         d="m 0,0 v -14.935 -9.052 -0.059 h 58.004 0.078 l 0.482,5.405 1.095,12.19 L 60.234,0 Z"
         style="fill:#ffffff;fill-opacity:1;fill-rule:nonzero;stroke:none"
         id="path3805"
         inkscape:connector-curvature="0" /></g><g
       id="g3807"
       transform="translate(225.2417,348.4604)"><path
         d="M 0,0 H -17.102 V -15.596 H 0 V -25.922 H -29.148 V 10.326 L 0,10.326 Z M 39.582,0.43 H 23.771 l 16.456,-17.844 v -8.508 H 6.346 v 9.896 h 16.44 L 6.346,1.74 v 8.693 h 33.236 z m 39.893,0 H 63.696 l 16.435,-17.844 v -8.508 H 46.25 v 9.896 H 62.696 L 46.25,1.74 v 8.693 h 33.236 z"
         style="fill:#000000;fill-opacity:1;fill-rule:nonzero;stroke:none"
         id="path3809"
         inkscape:connector-curvature="0" /></g><g
       id="g3811"
       transform="translate(172.8384,111.54)"><path
         d="M 0,0 -17.338,194.435 H 173.149 L 155.789,0.032 77.787,-21.587 Z"
         style="fill:#1572b6;fill-opacity:1;fill-rule:nonzero;stroke:none"
         id="path3813"
         inkscape:connector-curvature="0" /></g><g
       id="g3815"
       transform="translate(250.7329,106.4521)"><path
         d="M 0,0 63.03,17.479 77.851,183.604 H 0 Z"
         style="fill:#33a9dc;fill-opacity:1;fill-rule:nonzero;stroke:none"
         id="path3817"
         inkscape:connector-curvature="0" /></g><g
       id="g3819"
       transform="translate(250.7329,219.6045)"><path
         d="m 0,0 h 31.558 l 2.173,24.416 H 0 V 48.294 H 59.847 L 59.277,41.89 53.411,-23.878 H 0 Z"
         style="fill:#ffffff;fill-opacity:1;fill-rule:nonzero;stroke:none"
         id="path3821"
         inkscape:connector-curvature="0" /></g><g
       id="g3823"
       transform="translate(250.8945,157.7578)"><path
         d="m 0,0 h -0.107 l -26.502,7.16 -1.696,18.978 h -23.924 l 3.341,-37.403 48.802,-13.581 h 0.14 L 0.054,0 Z"
         style="fill:#ebebeb;fill-opacity:1;fill-rule:nonzero;stroke:none"
         id="path3825"
         inkscape:connector-curvature="0" /></g><g
       id="g3827"
       transform="translate(280.3115,196.791)"><path
         d="m 0,0 -2.872,-31.912 -26.599,-7.175 v -24.846 l 48.886,13.553 0.355,4.033 4.151,46.358 H 0 Z"
         style="fill:#ffffff;fill-opacity:1;fill-rule:nonzero;stroke:none"
         id="path3829"
         inkscape:connector-curvature="0" /></g><g
       id="g3831"
       transform="translate(250.7329,219.6045)"><path
         d="m 0,0 v -23.878 h -26.291 l -0.463,5.363 -1.087,12.107 L -28.412,0 H -0.011 Z M 0.108,48.294 V 24.416 h -57.665 l -0.496,5.363 -1.088,12.107 -0.57,6.408 z"
         style="fill:#ebebeb;fill-opacity:1;fill-rule:nonzero;stroke:none"
         id="path3833"
         inkscape:connector-curvature="0" /></g></g></svg>