<svg id="Unity" xmlns="http://www.w3.org/2000/svg" viewBox="0 0 640.91 232.18">
  <defs>
    <style>
      .cls-1 {
        fill: #110b09;
      }
    </style>
  </defs>
  <title>Unity_600svg</title>
  <path id="path2" class="cls-1" d="M127.87,356.81,86.33,286.94l41.54-69.87,20,69.87Zm-92.45-7.75L-16.77,297.3H66.31l41.54,69.87Zm0-124.44,72.21-18.11L66.1,276.38H-17Zm106.33-52.71L47.13,196.48,33,220.61,4.62,220.4l-69.42,67.5,69.42,67.5L33,355.17l14.1,24.14,94.62,24.78L167.17,312l-14.31-23.92,14.31-23.92Zm215,68.64c-12.73,0-21.36,5.25-27.84,14.92h-.43V241.52H305.25v90.63h23.24V281.82c-.17-12.57,7.71-21.3,18.57-21.3,10.22,0,17.89,6.18,18.61,17v56.91H388.9V274.8C389.12,254.84,376.17,240.55,356.75,240.55ZM270.18,295c0,12.35-6.85,20.87-18.05,20.87-10.16,0-16.6-6-16.6-16.82V241.52H214.62v61.42c0,20.12,11.28,33.25,31.55,33.25,12.75,0,19.85-4.87,25.91-13.34h.63v11.62h20.91v-93H270.39V295Zm128-53.45h23.24v93H398.2Zm0-27.89h23.24v18.59H398.2Zm153.37,27.89L538,283.78a185.46,185.46,0,0,0-5.39,20.48h-.65s-3-11.86-6-20.48L510.6,241.52H486.12L511.29,308c5.38,14.2,7.1,20.22,7.1,25.39,0,7.75-4.09,12.7-13.77,12.7H495.8v18.59h14.64c18.95,0,25.62-7.48,32.73-28l32.95-95.15Zm-86,65.41V257.79h13.94V241.52H465.59V213.64H442.35v27.89H428.41v16.27h13.94v54.32c0,17.47,13.1,22.15,24.93,22.15,9.72,0,12.25-.43,12.25-.43v-18h-5.38c-5,.21-8.57-2.13-8.57-8.95Z" transform="translate(64.8 -171.91)"/>
</svg>
