<?xml version="1.0" encoding="UTF-8"?>
<svg xmlns="http://www.w3.org/2000/svg" xmlns:xlink="http://www.w3.org/1999/xlink" width="384pt" height="384pt" viewBox="0 0 384 384" version="1.1">
<g id="surface1">
<path style=" stroke:none;fill-rule:nonzero;fill:rgb(41.176471%,80.392157%,100%);fill-opacity:1;" d="M 384 192 C 384 293.480469 301.730469 375.75 200.25 375.75 C 98.769531 375.75 16.5 293.480469 16.5 192 C 16.5 90.519531 98.769531 8.25 200.25 8.25 C 301.730469 8.25 384 90.519531 384 192 Z M 384 192 "/>
<path style=" stroke:none;fill-rule:nonzero;fill:rgb(26.666667%,36.862745%,62.745098%);fill-opacity:1;" d="M 139.289062 268.898438 L 198.324219 268.898438 L 198.324219 299.820312 L 139.289062 299.820312 Z M 139.289062 268.898438 "/>
<path style=" stroke:none;fill-rule:nonzero;fill:rgb(18.039216%,29.803922%,53.72549%);fill-opacity:1;" d="M 139.289062 268.898438 L 154.171875 268.898438 L 154.171875 299.820312 L 139.289062 299.820312 Z M 139.289062 268.898438 "/>
<path style=" stroke:none;fill-rule:nonzero;fill:rgb(16.078431%,23.921569%,48.627451%);fill-opacity:1;" d="M 237.640625 299.070312 L 95.671875 299.070312 C 93.566406 299.070312 91.84375 300.792969 91.84375 302.898438 L 91.84375 322.078125 C 91.84375 324.179688 93.566406 325.902344 95.671875 325.902344 L 237.640625 325.902344 Z M 237.640625 299.070312 "/>
<path style=" stroke:none;fill-rule:nonzero;fill:rgb(10.196078%,16.862745%,38.823529%);fill-opacity:1;" d="M 106.726562 322.078125 L 106.726562 302.898438 C 106.726562 300.792969 108.449219 299.070312 110.550781 299.070312 L 95.671875 299.070312 C 93.566406 299.070312 91.84375 300.792969 91.84375 302.898438 L 91.84375 322.078125 C 91.84375 324.179688 93.566406 325.902344 95.671875 325.902344 L 110.550781 325.902344 C 108.449219 325.902344 106.726562 324.179688 106.726562 322.078125 Z M 106.726562 322.078125 "/>
<path style=" stroke:none;fill-rule:nonzero;fill:rgb(16.078431%,23.921569%,48.627451%);fill-opacity:1;" d="M 333.789062 44.222656 L 3.828125 44.222656 C 1.722656 44.222656 0 45.945312 0 48.050781 L 0 265.824219 C -73.40625 252.554688 -122.15625 182.292969 -108.886719 108.886719 C -95.617188 35.480469 -25.355469 -13.269531 48.050781 0 L 281.863281 0 L 281.863281 155.074219 C 281.863281 152.183594 284.21875 149.824219 287.113281 149.824219 L 381.839844 149.824219 L 381.839844 48.050781 C 381.839844 45.945312 380.117188 44.222656 378.011719 44.222656 Z M 333.789062 44.222656 "/>
<path style=" stroke:none;fill-rule:nonzero;fill:rgb(100%,100%,100%);fill-opacity:1;" d="M 16.796875 231.386719 C -47.097656 236.023438 -102.65625 187.988281 -107.292969 124.089844 C -111.933594 60.195312 -63.894531 4.636719 0 0 L 218.550781 0 L 218.550781 155.074219 C 218.550781 152.183594 220.902344 149.824219 223.800781 149.824219 L 320.820312 149.824219 L 320.820312 81.75 L 16.796875 81.75 Z M 16.796875 231.386719 "/>
<path style=" stroke:none;fill-rule:nonzero;fill:rgb(85.098039%,91.764706%,98.823529%);fill-opacity:1;" d="M 31.679688 231.386719 L 31.679688 81.75 L 16.796875 81.75 L 16.796875 231.386719 C -47.097656 236.023438 -102.65625 187.988281 -107.292969 124.089844 C -111.933594 60.195312 -63.894531 4.636719 0 0 L 33.976562 0 C 34.878906 0.519531 35.320312 1.582031 35.050781 2.589844 C 34.78125 3.597656 33.871094 4.296875 32.828125 4.296875 C 31.785156 4.296875 30.871094 3.597656 30.601562 2.589844 C 30.332031 1.582031 30.777344 0.519531 31.679688 0 Z M 31.679688 231.386719 "/>
<path style=" stroke:none;fill-rule:nonzero;fill:rgb(26.666667%,36.862745%,62.745098%);fill-opacity:1;" d="M 179.140625 251.59375 C 179.140625 257.300781 174.515625 261.925781 168.808594 261.925781 C 163.105469 261.925781 158.480469 257.300781 158.480469 251.59375 C 158.480469 245.890625 163.105469 241.265625 168.808594 241.265625 C 174.515625 241.265625 179.140625 245.890625 179.140625 251.59375 Z M 179.140625 251.59375 "/>
<path style=" stroke:none;fill-rule:nonzero;fill:rgb(76.470588%,86.666667%,95.686275%);fill-opacity:1;" d="M 237.640625 167.359375 L 197.574219 167.359375 C 196.335938 167.359375 195.324219 168.371094 195.324219 169.609375 L 195.324219 214.339844 C 195.324219 215.578125 196.335938 216.589844 197.574219 216.589844 L 237.640625 216.589844 Z M 237.640625 167.359375 "/>
<path style=" stroke:none;fill-rule:nonzero;fill:rgb(68.235294%,75.686275%,92.941176%);fill-opacity:1;" d="M 210.207031 214.339844 L 210.207031 169.609375 C 210.207031 168.371094 211.21875 167.359375 212.457031 167.359375 L 197.574219 167.359375 C 196.335938 167.359375 195.324219 168.371094 195.324219 169.609375 L 195.324219 214.339844 C 195.324219 215.578125 196.335938 216.589844 197.574219 216.589844 L 212.457031 216.589844 C 211.21875 216.589844 210.207031 215.578125 210.207031 214.339844 Z M 210.207031 214.339844 "/>
<path style=" stroke:none;fill-rule:nonzero;fill:rgb(76.470588%,86.666667%,95.686275%);fill-opacity:1;" d="M 242.890625 149.824219 L 277.855469 149.824219 L 277.855469 100.789062 C 277.855469 98.726562 276.167969 97.039062 274.105469 97.039062 L 63.511719 97.039062 C 61.449219 97.039062 59.761719 98.726562 59.761719 100.789062 L 59.761719 150.683594 C 59.761719 152.746094 61.449219 154.433594 63.511719 154.433594 L 237.6875 154.433594 C 238.003906 151.839844 240.214844 149.824219 242.890625 149.824219 Z M 242.890625 149.824219 "/>
<path style=" stroke:none;fill-rule:nonzero;fill:rgb(68.235294%,75.686275%,92.941176%);fill-opacity:1;" d="M 74.644531 150.683594 L 74.644531 100.789062 C 74.644531 98.726562 76.332031 97.039062 78.394531 97.039062 L 63.511719 97.039062 C 61.449219 97.039062 59.761719 98.726562 59.761719 100.789062 L 59.761719 150.683594 C 59.761719 152.746094 61.449219 154.433594 63.511719 154.433594 L 78.394531 154.433594 C 76.332031 154.433594 74.644531 152.746094 74.644531 150.683594 Z M 74.644531 150.683594 "/>
<path style=" stroke:none;fill-rule:nonzero;fill:rgb(100%,68.627451%,6.27451%);fill-opacity:1;" d="M 318.523438 63.738281 L 19.09375 63.738281 C 1.492188 63.101562 -12.261719 48.320312 -11.628906 30.71875 C -10.992188 13.121094 3.789062 -0.632812 21.390625 0 L 21.390625 16.464844 L 320.820312 16.464844 L 320.820312 66.035156 C 302.585938 66.667969 287.289062 52.398438 286.65625 34.164062 C 286.019531 15.929688 300.289062 0.632812 318.523438 0 Z M 318.523438 63.738281 "/>
<path style=" stroke:none;fill-rule:nonzero;fill:rgb(100%,58.431373%,9.411765%);fill-opacity:1;" d="M 33.976562 63.738281 L 19.09375 63.738281 C 1.492188 63.101562 -12.261719 48.320312 -11.628906 30.71875 C -10.992188 13.121094 3.789062 -0.632812 21.390625 0 L 21.390625 16.464844 L 36.269531 16.464844 L 36.269531 66.035156 C 18.035156 70.144531 -0.078125 58.691406 -4.1875 40.457031 C -8.296875 22.222656 3.15625 4.109375 21.390625 0 Z M 33.976562 63.738281 "/>
<path style=" stroke:none;fill-rule:nonzero;fill:rgb(36.470588%,75.686275%,84.705882%);fill-opacity:1;" d="M 128.628906 179.234375 L 65.5 179.234375 C 62.394531 179.234375 59.875 176.714844 59.875 173.609375 C 59.875 170.503906 62.394531 167.984375 65.5 167.984375 L 128.628906 167.984375 C 131.734375 167.984375 134.253906 170.503906 134.253906 173.609375 C 134.253906 176.714844 131.734375 179.234375 128.628906 179.234375 Z M 128.628906 197.597656 L 65.5 197.597656 C 62.394531 197.597656 59.875 195.082031 59.875 191.972656 C 59.875 188.867188 62.394531 186.347656 65.5 186.347656 L 128.628906 186.347656 C 77.167969 168.855469 49.632812 112.960938 67.125 61.5 C 84.621094 10.042969 140.515625 -17.492188 191.972656 0 Z M 128.628906 215.964844 L 65.5 215.964844 C 62.394531 215.964844 59.875 213.445312 59.875 210.339844 C 59.875 207.234375 62.394531 204.714844 65.5 204.714844 L 128.628906 204.714844 C 131.734375 204.714844 134.253906 207.234375 134.253906 210.339844 C 134.253906 213.445312 131.734375 215.964844 128.628906 215.964844 Z M 178.171875 179.234375 L 145.675781 179.234375 C 142.570312 179.234375 140.050781 176.714844 140.050781 173.609375 C 140.050781 170.503906 142.570312 167.984375 145.675781 167.984375 L 178.171875 167.984375 C 181.277344 167.984375 183.796875 170.503906 183.796875 173.609375 C 183.796875 176.714844 181.277344 179.234375 178.171875 179.234375 Z M 178.171875 197.597656 L 145.675781 197.597656 C 142.570312 197.597656 140.050781 195.082031 140.050781 191.972656 C 140.050781 188.867188 142.570312 186.347656 145.675781 186.347656 L 178.171875 186.347656 C 126.710938 182.539062 88.085938 137.730469 91.898438 86.273438 C 95.710938 34.8125 140.515625 -3.8125 191.972656 0 Z M 178.171875 215.964844 L 145.675781 215.964844 C 142.570312 215.964844 140.050781 213.445312 140.050781 210.339844 C 140.050781 207.234375 142.570312 204.714844 145.675781 204.714844 L 178.171875 204.714844 C 181.277344 204.714844 183.796875 207.234375 183.796875 210.339844 C 183.796875 213.445312 181.277344 215.964844 178.171875 215.964844 Z M 178.171875 215.964844 "/>
<path style=" stroke:none;fill-rule:nonzero;fill:rgb(26.666667%,36.862745%,62.745098%);fill-opacity:1;" d="M 378 149.074219 C 381.300781 149.074219 384 151.777344 384 155.074219 L 384 336.402344 C 384 339.703125 381.300781 342.402344 378 342.402344 L 242.890625 342.402344 C 239.59375 342.402344 236.890625 339.703125 236.890625 336.402344 L 236.890625 155.074219 C 236.890625 151.777344 239.59375 149.074219 242.890625 149.074219 Z M 378 149.074219 "/>
<path style=" stroke:none;fill-rule:nonzero;fill:rgb(100%,100%,100%);fill-opacity:1;" d="M 253.175781 318.84375 C 251.113281 318.84375 249.425781 317.15625 249.425781 315.09375 L 249.425781 164.386719 C 249.425781 162.324219 251.113281 160.636719 253.175781 160.636719 L 367.71875 160.636719 C 369.78125 160.636719 371.46875 162.324219 371.46875 164.386719 L 371.46875 315.09375 C 371.46875 317.15625 369.78125 318.84375 367.71875 318.84375 Z M 253.175781 318.84375 "/>
<path style=" stroke:none;fill-rule:nonzero;fill:rgb(85.098039%,91.764706%,98.823529%);fill-opacity:1;" d="M 264.308594 315.09375 L 264.308594 164.386719 C 264.308594 162.324219 265.996094 160.636719 268.058594 160.636719 L 253.175781 160.636719 C 251.113281 160.636719 249.425781 162.324219 249.425781 164.386719 L 249.425781 315.09375 C 249.425781 317.15625 251.113281 318.84375 253.175781 318.84375 L 268.058594 318.84375 C 265.996094 318.84375 264.308594 317.15625 264.308594 315.09375 Z M 264.308594 315.09375 "/>
<path style=" stroke:none;fill-rule:nonzero;fill:rgb(26.666667%,36.862745%,62.745098%);fill-opacity:1;" d="M 303.425781 333.84375 C 301.363281 333.84375 299.675781 332.15625 299.675781 330.09375 L 299.675781 328.636719 C 299.675781 326.574219 301.363281 324.886719 303.425781 324.886719 L 317.46875 324.886719 C 319.53125 324.886719 321.21875 326.574219 321.21875 328.636719 L 321.21875 330.09375 C 321.21875 332.15625 319.53125 333.84375 317.46875 333.84375 Z M 303.425781 333.84375 "/>
<path style=" stroke:none;fill-rule:nonzero;fill:rgb(100%,68.627451%,6.27451%);fill-opacity:1;" d="M 371.46875 175.105469 L 371.46875 164.386719 C 371.46875 162.324219 369.78125 160.636719 367.71875 160.636719 L 253.175781 160.636719 C 251.113281 160.636719 249.425781 162.324219 249.425781 164.386719 L 249.425781 175.105469 Z M 371.46875 175.105469 "/>
<path style=" stroke:none;fill-rule:nonzero;fill:rgb(100%,58.431373%,9.411765%);fill-opacity:1;" d="M 268.058594 160.636719 L 253.175781 160.636719 C 251.113281 160.636719 249.425781 162.324219 249.425781 164.386719 L 249.425781 175.105469 L 264.308594 175.105469 L 264.308594 164.386719 C 264.308594 162.324219 265.996094 160.636719 268.058594 160.636719 Z M 268.058594 160.636719 "/>
<path style=" stroke:none;fill-rule:nonzero;fill:rgb(36.470588%,75.686275%,84.705882%);fill-opacity:1;" d="M 336.007812 243.699219 L 284.882812 243.699219 C 281.777344 243.699219 279.257812 241.183594 279.257812 238.074219 C 279.257812 234.96875 281.777344 232.449219 284.882812 232.449219 L 336.007812 232.449219 C 271.820312 259.492188 197.863281 229.382812 170.816406 165.191406 C 143.773438 101.003906 173.886719 27.042969 238.074219 0 Z M 336.007812 261.046875 L 284.882812 261.046875 C 212.796875 273.972656 143.882812 226.011719 130.957031 153.925781 C 118.03125 81.839844 165.988281 12.925781 238.074219 0 L 289.203125 0 C 289.203125 14.117188 277.757812 25.5625 263.636719 25.5625 C 249.519531 25.5625 238.074219 14.117188 238.074219 0 Z M 336.007812 278.390625 L 284.882812 278.390625 C 208.007812 291.316406 135.210938 239.472656 122.285156 162.597656 C 109.359375 85.722656 161.199219 12.925781 238.074219 0 L 289.203125 0 C 289.203125 14.117188 277.757812 25.5625 263.636719 25.5625 C 249.519531 25.5625 238.074219 14.117188 238.074219 0 Z M 336.007812 278.390625 "/>
<path style=" stroke:none;fill-rule:nonzero;fill:rgb(76.470588%,86.666667%,95.686275%);fill-opacity:1;" d="M 359.816406 219.191406 C 359.816406 221.253906 358.128906 222.941406 356.066406 222.941406 L 264.824219 222.941406 C 262.761719 222.941406 261.074219 221.253906 261.074219 219.191406 L 261.074219 188.257812 C 261.074219 186.195312 262.761719 184.507812 264.824219 184.507812 L 356.066406 184.507812 C 358.128906 184.507812 359.816406 186.195312 359.816406 188.257812 Z M 359.816406 219.191406 "/>
<path style=" stroke:none;fill-rule:nonzero;fill:rgb(68.235294%,75.686275%,92.941176%);fill-opacity:1;" d="M 275.957031 219.191406 L 275.957031 188.257812 C 275.957031 186.195312 277.644531 184.507812 279.707031 184.507812 L 264.824219 184.507812 C 262.761719 184.507812 261.074219 186.195312 261.074219 188.257812 L 261.074219 219.191406 C 261.074219 221.253906 262.761719 222.941406 264.824219 222.941406 L 279.707031 222.941406 C 277.644531 222.941406 275.957031 221.253906 275.957031 219.191406 Z M 275.957031 219.191406 "/>
<path style=" stroke:none;fill-rule:nonzero;fill:rgb(76.470588%,86.666667%,95.686275%);fill-opacity:1;" d="M 346.316406 307.0625 C 346.316406 309.125 344.628906 310.8125 342.566406 310.8125 L 278.324219 310.8125 C 276.261719 310.8125 274.574219 309.125 274.574219 307.0625 L 274.574219 294.378906 C 274.574219 292.316406 276.261719 290.628906 278.324219 290.628906 L 342.566406 290.628906 C 344.628906 290.628906 346.316406 292.316406 346.316406 294.378906 Z M 346.316406 307.0625 "/>
<path style=" stroke:none;fill-rule:nonzero;fill:rgb(68.235294%,75.686275%,92.941176%);fill-opacity:1;" d="M 289.457031 307.0625 L 289.457031 294.378906 C 289.457031 292.316406 291.144531 290.628906 293.207031 290.628906 L 278.324219 290.628906 C 276.261719 290.628906 274.574219 292.316406 274.574219 294.378906 L 274.574219 307.0625 C 274.574219 309.125 276.261719 310.8125 278.324219 310.8125 L 293.207031 310.8125 C 291.144531 310.8125 289.457031 309.125 289.457031 307.0625 Z M 289.457031 307.0625 "/>
</g>
</svg>
